<?xml version="1.0" encoding="UTF-8"?>
<svg version="1.1" xmlns="http://www.w3.org/2000/svg" width="261" height="225">
<path d="M0 0 C86.13 0 172.26 0 261 0 C261 74.25 261 148.5 261 225 C174.87 225 88.74 225 0 225 C0 150.75 0 76.5 0 0 Z " fill="#FEFEFE" transform="translate(0,0)"/>
<path d="M0 0 C2.22764582 0.13277359 4.45739181 0.23093909 6.6875 0.3125 C17.54362743 0.88791311 30.16385252 2.56011313 37.8125 11 C40.28682975 15.16729221 40.09723868 19.11771054 40.02734375 23.890625 C40.01468938 25.25390364 40.00232902 26.61718503 39.99023438 27.98046875 C39.96552984 30.11092911 39.93763806 32.24124251 39.90405273 34.37158203 C39.79283132 41.90836517 39.8850074 48.7262985 42 56 C44.70388674 73.96838208 45.97439489 96.40086038 35.3125 112 C25.68963689 123.84626032 13.3094215 131.9341402 -2.0625 133.6875 C-3.361875 133.790625 -4.66125 133.89375 -6 134 C-5.505 134.94875 -5.01 135.8975 -4.5 136.875 C-3 140 -3 140 -3 142 C-2.236875 142.020625 -1.47375 142.04125 -0.6875 142.0625 C2 143 2 143 3.8125 146.0625 C4.97807007 148.79933579 4.97856256 150.54784558 4.859375 153.59375 C4.77854611 158.93030754 6.61298617 163.48524818 8.4375 168.4375 C10.85342407 175.04421512 12.49167207 180.96216398 13 188 C11.68 188.33 10.36 188.66 9 189 C9 189.99 9 190.98 9 192 C-5.01235191 192.04672135 -19.02469175 192.08185654 -33.03710556 192.10362434 C-39.54331917 192.11407069 -46.04948053 192.12824551 -52.55566406 192.15087891 C-58.83205938 192.1725768 -65.10840437 192.18456221 -71.38483429 192.18975449 C-73.78187096 192.19345573 -76.17890481 192.20068311 -78.5759201 192.21146011 C-81.92795306 192.22593429 -85.27977686 192.22797963 -88.63183594 192.22705078 C-89.62733459 192.23424133 -90.62283325 192.24143188 -91.64849854 192.24884033 C-92.56272583 192.246091 -93.47695312 192.24334167 -94.41888428 192.24050903 C-95.60799723 192.24327441 -95.60799723 192.24327441 -96.82113266 192.24609566 C-99.25667771 191.97100913 -100.88788177 191.21397748 -103 190 C-103 190.66 -103 191.32 -103 192 C-104.32 192 -105.64 192 -107 192 C-107.020625 191.29875 -107.04125 190.5975 -107.0625 189.875 C-108.28773819 186.11760287 -110.32310153 185.06304331 -113.6015625 183.015625 C-115.63338623 180.08707459 -115.0924496 177.92856513 -114.56445312 174.49169922 C-113.6140285 170.29618292 -112.08530921 166.40203107 -110.4375 162.4375 C-110.10814453 161.61958984 -109.77878906 160.80167969 -109.43945312 159.95898438 C-108.63631085 157.9685883 -107.81958033 155.98368398 -107 154 C-107.95193237 153.79963135 -107.95193237 153.79963135 -108.9230957 153.59521484 C-111 153 -111 153 -112.23046875 151.4765625 C-112.54628906 150.86554688 -112.86210938 150.25453125 -113.1875 149.625 C-113.51105469 149.01914063 -113.83460937 148.41328125 -114.16796875 147.7890625 C-117.10659338 141.47032973 -116.76619906 134.65673855 -114.625 128.125 C-113.59703684 125.31108064 -112.37276404 122.66196854 -111 120 C-111.86625 119.77183594 -112.7325 119.54367188 -113.625 119.30859375 C-117.42900725 117.83366038 -120.0614861 115.80609549 -123 113.0625 C-123.52182861 112.57885986 -124.04365723 112.09521973 -124.58129883 111.59692383 C-132.93232124 103.5250079 -136.059707 94.91962408 -136.3125 83.4375 C-136.26904035 75.23231718 -134.15198276 68.07835325 -130.96875 60.56640625 C-129.78273704 57.42442838 -129.10575766 54.27816518 -128.375 51 C-126.11268349 41.44624525 -122.57054694 32.42662883 -118.92675781 23.32763672 C-118.13632039 21.34238108 -117.37379806 19.34604854 -116.6171875 17.34765625 C-113.22813629 8.62814369 -108.85225578 0.42456132 -101 -5 C-93.35327344 -7.82928883 -85.29300855 -8.31825124 -77.22509766 -8.65478516 C-73.09349633 -8.83571088 -69.19071867 -9.24366995 -65.125 -10.0625 C-43.3327788 -13.98688363 -19.70110034 -9.85055017 0 0 Z " fill="#FDFDFD" transform="translate(197,22)"/>
<path d="M0 0 C2.22764582 0.13277359 4.45739181 0.23093909 6.6875 0.3125 C17.54362743 0.88791311 30.16385252 2.56011313 37.8125 11 C40.28682975 15.16729221 40.09723868 19.11771054 40.02734375 23.890625 C40.01468938 25.25390364 40.00232902 26.61718503 39.99023438 27.98046875 C39.96552984 30.11092911 39.93763806 32.24124251 39.90405273 34.37158203 C39.79283132 41.90836517 39.8850074 48.7262985 42 56 C44.70388674 73.96838208 45.97439489 96.40086038 35.3125 112 C25.68963689 123.84626032 13.3094215 131.9341402 -2.0625 133.6875 C-3.361875 133.790625 -4.66125 133.89375 -6 134 C-5.505 134.94875 -5.01 135.8975 -4.5 136.875 C-3 140 -3 140 -3 142 C-2.236875 142.020625 -1.47375 142.04125 -0.6875 142.0625 C2 143 2 143 3.8125 146.0625 C4.97807007 148.79933579 4.97856256 150.54784558 4.859375 153.59375 C4.77854611 158.93030754 6.61298617 163.48524818 8.4375 168.4375 C10.85342407 175.04421512 12.49167207 180.96216398 13 188 C11.68 188.33 10.36 188.66 9 189 C9 189.99 9 190.98 9 192 C-5.01235191 192.04672135 -19.02469175 192.08185654 -33.03710556 192.10362434 C-39.54331917 192.11407069 -46.04948053 192.12824551 -52.55566406 192.15087891 C-58.83205938 192.1725768 -65.10840437 192.18456221 -71.38483429 192.18975449 C-73.78187096 192.19345573 -76.17890481 192.20068311 -78.5759201 192.21146011 C-81.92795306 192.22593429 -85.27977686 192.22797963 -88.63183594 192.22705078 C-89.62733459 192.23424133 -90.62283325 192.24143188 -91.64849854 192.24884033 C-92.56272583 192.246091 -93.47695312 192.24334167 -94.41888428 192.24050903 C-95.60799723 192.24327441 -95.60799723 192.24327441 -96.82113266 192.24609566 C-99.25667771 191.97100913 -100.88788177 191.21397748 -103 190 C-103 190.66 -103 191.32 -103 192 C-104.32 192 -105.64 192 -107 192 C-107.020625 191.29875 -107.04125 190.5975 -107.0625 189.875 C-108.28773819 186.11760287 -110.32310153 185.06304331 -113.6015625 183.015625 C-115.63338623 180.08707459 -115.0924496 177.92856513 -114.56445312 174.49169922 C-113.6140285 170.29618292 -112.08530921 166.40203107 -110.4375 162.4375 C-110.10814453 161.61958984 -109.77878906 160.80167969 -109.43945312 159.95898438 C-108.63631085 157.9685883 -107.81958033 155.98368398 -107 154 C-107.95193237 153.79963135 -107.95193237 153.79963135 -108.9230957 153.59521484 C-111 153 -111 153 -112.23046875 151.4765625 C-112.54628906 150.86554688 -112.86210938 150.25453125 -113.1875 149.625 C-113.51105469 149.01914063 -113.83460937 148.41328125 -114.16796875 147.7890625 C-117.10659338 141.47032973 -116.76619906 134.65673855 -114.625 128.125 C-113.59703684 125.31108064 -112.37276404 122.66196854 -111 120 C-111.86625 119.77183594 -112.7325 119.54367188 -113.625 119.30859375 C-117.42900725 117.83366038 -120.0614861 115.80609549 -123 113.0625 C-123.52182861 112.57885986 -124.04365723 112.09521973 -124.58129883 111.59692383 C-132.93232124 103.5250079 -136.059707 94.91962408 -136.3125 83.4375 C-136.26904035 75.23231718 -134.15198276 68.07835325 -130.96875 60.56640625 C-129.78273704 57.42442838 -129.10575766 54.27816518 -128.375 51 C-126.11268349 41.44624525 -122.57054694 32.42662883 -118.92675781 23.32763672 C-118.13632039 21.34238108 -117.37379806 19.34604854 -116.6171875 17.34765625 C-113.22813629 8.62814369 -108.85225578 0.42456132 -101 -5 C-93.35327344 -7.82928883 -85.29300855 -8.31825124 -77.22509766 -8.65478516 C-73.09349633 -8.83571088 -69.19071867 -9.24366995 -65.125 -10.0625 C-43.3327788 -13.98688363 -19.70110034 -9.85055017 0 0 Z M-105.6796875 13.29296875 C-109.34072631 17.5641807 -112.24439598 22.10667225 -115 27 C-115.43828125 27.75410156 -115.8765625 28.50820313 -116.328125 29.28515625 C-121.39560055 38.63432792 -124.86503305 49.39085135 -127.04296875 59.78515625 C-127.71029849 62.94344033 -128.59839456 65.51402832 -130.125 68.375 C-133.67156398 76.97273087 -133.56918379 87.821139 -130.89453125 96.6484375 C-126.92525356 105.09778465 -120.01805706 113.60496675 -111 117 C-108.40760299 117.0690607 -108.40760299 117.0690607 -106 116 C-104.27949649 113.81964539 -104.27949649 113.81964539 -103 111.125 C-99.81572904 104.91929012 -95.39909161 102.90493052 -89.0625 100.63671875 C-86.03713629 99.7027523 -83.15773199 99.18946392 -80 99 C-78 101 -78 101 -77.125 104.1875 C-76.21806995 107.26098516 -75.52915527 108.91975076 -73.875 111.5 C-71.74011675 115.48511539 -71.43326969 117.54711899 -72 122 C-72.53625 123.051875 -73.0725 124.10375 -73.625 125.1875 C-75.30613506 127.8101235 -75.30613506 127.8101235 -74.38671875 129.96484375 C-68.68899633 138.32685327 -54.36691072 143.3565693 -45.0625 146.4375 C-41.7257247 147.0503771 -39.28028879 146.80007044 -36 146 C-35.67 146.66 -35.34 147.32 -35 148 C-28.52607792 150.47767388 -18.55585047 150.04262453 -11.94921875 148.10546875 C-9.87822654 147.17071469 -7.92797883 146.19963127 -6 145 C-6.53050734 140.49068763 -8.1404295 137.51318661 -11 134 C-12.32 134 -13.64 134 -15 134 C-15 132.68 -15 131.36 -15 130 C-14.14019531 130.04640625 -13.28039062 130.0928125 -12.39453125 130.140625 C3.24880966 130.61828426 15.66387398 125.78885295 27.4296875 115.58984375 C38.52005304 104.36153834 39.57989062 91.20013325 39.5625 76.25 C39.56630676 75.18477112 39.56630676 75.18477112 39.57019043 74.09802246 C39.56688824 65.9109406 38.87163942 58.43637929 36.63012695 50.50683594 C35.83980249 47.36268579 35.8862076 44.70365197 36.3125 41.5 C38.30837549 25.49227457 38.30837549 25.49227457 32.6875 11.0625 C25.55306042 5.58723242 16.60851288 5.01716442 7.875 4.75 C-0.84979017 4.27362116 -7.98603673 1.2776595 -16 -2 C-44.93107983 -12.34999194 -83.62779696 -9.76128045 -105.6796875 13.29296875 Z " fill="#B5E0F4" transform="translate(197,22)"/>
<path d="M0 0 C2.22764582 0.13277359 4.45739181 0.23093909 6.6875 0.3125 C17.54362743 0.88791311 30.16385252 2.56011313 37.8125 11 C40.28682975 15.16729221 40.09723868 19.11771054 40.02734375 23.890625 C40.01468938 25.25390364 40.00232902 26.61718503 39.99023438 27.98046875 C39.96552984 30.11092911 39.93763806 32.24124251 39.90405273 34.37158203 C39.79283132 41.90836517 39.8850074 48.7262985 42 56 C44.70388674 73.96838208 45.97439489 96.40086038 35.3125 112 C25.68963689 123.84626032 13.3094215 131.9341402 -2.0625 133.6875 C-3.361875 133.790625 -4.66125 133.89375 -6 134 C-5.505 134.94875 -5.01 135.8975 -4.5 136.875 C-3 140 -3 140 -3 142 C-2.236875 142.020625 -1.47375 142.04125 -0.6875 142.0625 C2 143 2 143 3.8125 146.0625 C4.97807007 148.79933579 4.97856256 150.54784558 4.859375 153.59375 C4.77854611 158.93030754 6.61298617 163.48524818 8.4375 168.4375 C10.85342407 175.04421512 12.49167207 180.96216398 13 188 C11.68 188.33 10.36 188.66 9 189 C9 189.99 9 190.98 9 192 C3.39 192 -2.22 192 -8 192 C-4.77621244 189.8508083 -2.01585352 188.975006 1.6875 187.875 C3.45673828 187.34519531 3.45673828 187.34519531 5.26171875 186.8046875 C6.16535156 186.53914062 7.06898438 186.27359375 8 186 C6.94151387 178.25883277 4.80573702 171.23811061 2.0234375 163.96875 C1 161 1 161 1 158 C0.01 157.67 -0.98 157.34 -2 157 C-1.649375 156.0925 -1.29875 155.185 -0.9375 154.25 C-0.03531221 151.12241564 0.13381507 149.94791919 -1 147 C-3.85005166 148.12274762 -6.64753265 149.29433302 -9.4375 150.5625 C-24.73996046 156.73717703 -41.70872299 151.90859003 -56.20703125 145.75 C-62.40437932 142.9820968 -68.20147876 139.51357424 -74 136 C-74.95648438 135.42636719 -75.91296875 134.85273438 -76.8984375 134.26171875 C-77.59195313 133.84535156 -78.28546875 133.42898437 -79 133 C-79.12117188 133.72316406 -79.24234375 134.44632813 -79.3671875 135.19140625 C-81.14160445 143.06675061 -85.15206682 149.64775803 -92 154 C-96.12703852 155.85295607 -99.49867536 156.21434879 -104 156 C-104.2475 157.093125 -104.495 158.18625 -104.75 159.3125 C-105.85760661 163.82318778 -107.48503606 168.07357635 -109.1953125 172.38671875 C-110.05314845 175.17260347 -110.426309 177.11163675 -110 180 C-104.48229371 185.93117783 -95.42470987 188.40651556 -88 191 C-88 191.33 -88 191.66 -88 192 C-89.74965358 192.05429959 -91.49979787 192.09292823 -93.25 192.125 C-94.22453125 192.14820313 -95.1990625 192.17140625 -96.203125 192.1953125 C-99.0196498 191.99862781 -100.60949036 191.44568916 -103 190 C-103 190.66 -103 191.32 -103 192 C-104.32 192 -105.64 192 -107 192 C-107.020625 191.29875 -107.04125 190.5975 -107.0625 189.875 C-108.28773819 186.11760287 -110.32310153 185.06304331 -113.6015625 183.015625 C-115.63338623 180.08707459 -115.0924496 177.92856513 -114.56445312 174.49169922 C-113.6140285 170.29618292 -112.08530921 166.40203107 -110.4375 162.4375 C-110.10814453 161.61958984 -109.77878906 160.80167969 -109.43945312 159.95898438 C-108.63631085 157.9685883 -107.81958033 155.98368398 -107 154 C-107.95193237 153.79963135 -107.95193237 153.79963135 -108.9230957 153.59521484 C-111 153 -111 153 -112.23046875 151.4765625 C-112.54628906 150.86554688 -112.86210938 150.25453125 -113.1875 149.625 C-113.51105469 149.01914063 -113.83460937 148.41328125 -114.16796875 147.7890625 C-117.10659338 141.47032973 -116.76619906 134.65673855 -114.625 128.125 C-113.59703684 125.31108064 -112.37276404 122.66196854 -111 120 C-111.86625 119.77183594 -112.7325 119.54367188 -113.625 119.30859375 C-117.42900725 117.83366038 -120.0614861 115.80609549 -123 113.0625 C-123.52182861 112.57885986 -124.04365723 112.09521973 -124.58129883 111.59692383 C-132.93232124 103.5250079 -136.059707 94.91962408 -136.3125 83.4375 C-136.26904035 75.23231718 -134.15198276 68.07835325 -130.96875 60.56640625 C-129.78273704 57.42442838 -129.10575766 54.27816518 -128.375 51 C-126.11268349 41.44624525 -122.57054694 32.42662883 -118.92675781 23.32763672 C-118.13632039 21.34238108 -117.37379806 19.34604854 -116.6171875 17.34765625 C-113.22813629 8.62814369 -108.85225578 0.42456132 -101 -5 C-93.35327344 -7.82928883 -85.29300855 -8.31825124 -77.22509766 -8.65478516 C-73.09349633 -8.83571088 -69.19071867 -9.24366995 -65.125 -10.0625 C-43.3327788 -13.98688363 -19.70110034 -9.85055017 0 0 Z M-105.6796875 13.29296875 C-109.34072631 17.5641807 -112.24439598 22.10667225 -115 27 C-115.43828125 27.75410156 -115.8765625 28.50820313 -116.328125 29.28515625 C-121.39560055 38.63432792 -124.86503305 49.39085135 -127.04296875 59.78515625 C-127.71029849 62.94344033 -128.59839456 65.51402832 -130.125 68.375 C-133.67156398 76.97273087 -133.56918379 87.821139 -130.89453125 96.6484375 C-126.92525356 105.09778465 -120.01805706 113.60496675 -111 117 C-108.40760299 117.0690607 -108.40760299 117.0690607 -106 116 C-104.27949649 113.81964539 -104.27949649 113.81964539 -103 111.125 C-99.81572904 104.91929012 -95.39909161 102.90493052 -89.0625 100.63671875 C-86.03713629 99.7027523 -83.15773199 99.18946392 -80 99 C-78 101 -78 101 -77.125 104.1875 C-76.21806995 107.26098516 -75.52915527 108.91975076 -73.875 111.5 C-71.74011675 115.48511539 -71.43326969 117.54711899 -72 122 C-72.53625 123.051875 -73.0725 124.10375 -73.625 125.1875 C-75.30613506 127.8101235 -75.30613506 127.8101235 -74.38671875 129.96484375 C-68.68899633 138.32685327 -54.36691072 143.3565693 -45.0625 146.4375 C-41.7257247 147.0503771 -39.28028879 146.80007044 -36 146 C-35.67 146.66 -35.34 147.32 -35 148 C-28.52607792 150.47767388 -18.55585047 150.04262453 -11.94921875 148.10546875 C-9.87822654 147.17071469 -7.92797883 146.19963127 -6 145 C-6.53050734 140.49068763 -8.1404295 137.51318661 -11 134 C-12.32 134 -13.64 134 -15 134 C-15 132.68 -15 131.36 -15 130 C-14.14019531 130.04640625 -13.28039062 130.0928125 -12.39453125 130.140625 C3.24880966 130.61828426 15.66387398 125.78885295 27.4296875 115.58984375 C38.52005304 104.36153834 39.57989062 91.20013325 39.5625 76.25 C39.56630676 75.18477112 39.56630676 75.18477112 39.57019043 74.09802246 C39.56688824 65.9109406 38.87163942 58.43637929 36.63012695 50.50683594 C35.83980249 47.36268579 35.8862076 44.70365197 36.3125 41.5 C38.30837549 25.49227457 38.30837549 25.49227457 32.6875 11.0625 C25.55306042 5.58723242 16.60851288 5.01716442 7.875 4.75 C-0.84979017 4.27362116 -7.98603673 1.2776595 -16 -2 C-44.93107983 -12.34999194 -83.62779696 -9.76128045 -105.6796875 13.29296875 Z " fill="#544A4A" transform="translate(197,22)"/>
<path d="M0 0 C26.6126044 -0.74460137 26.6126044 -0.74460137 36 7 C40.18265985 11.6153488 40.11617236 15.82478635 40.02734375 21.890625 C40.01468938 23.25390364 40.00232902 24.61718503 39.99023438 25.98046875 C39.96552984 28.11092911 39.93763806 30.24124251 39.90405273 32.37158203 C39.79283132 39.90836517 39.8850074 46.7262985 42 54 C44.70388674 71.96838208 45.97439489 94.40086038 35.3125 110 C25.68963689 121.84626032 13.3094215 129.9341402 -2.0625 131.6875 C-3.361875 131.790625 -4.66125 131.89375 -6 132 C-5.505 132.94875 -5.01 133.8975 -4.5 134.875 C-3 138 -3 138 -3 140 C-2.236875 140.020625 -1.47375 140.04125 -0.6875 140.0625 C2 141 2 141 3.8125 144.0625 C4.97807007 146.79933579 4.97856256 148.54784558 4.859375 151.59375 C4.77854611 156.93030754 6.61298617 161.48524818 8.4375 166.4375 C10.85342407 173.04421512 12.49167207 178.96216398 13 186 C11.68 186.33 10.36 186.66 9 187 C9 187.99 9 188.98 9 190 C3.39 190 -2.22 190 -8 190 C-4.77621244 187.8508083 -2.01585352 186.975006 1.6875 185.875 C3.45673828 185.34519531 3.45673828 185.34519531 5.26171875 184.8046875 C6.16535156 184.53914062 7.06898438 184.27359375 8 184 C6.94151387 176.25883277 4.80573702 169.23811061 2.0234375 161.96875 C1 159 1 159 1 156 C0.01 155.67 -0.98 155.34 -2 155 C-1.649375 154.0925 -1.29875 153.185 -0.9375 152.25 C-0.03531221 149.12241564 0.13381507 147.94791919 -1 145 C-3.85005166 146.12274762 -6.64753265 147.29433302 -9.4375 148.5625 C-24.73996046 154.73717703 -41.70872299 149.90859003 -56.20703125 143.75 C-62.40437932 140.9820968 -68.20147876 137.51357424 -74 134 C-74.95648438 133.42636719 -75.91296875 132.85273438 -76.8984375 132.26171875 C-77.59195313 131.84535156 -78.28546875 131.42898437 -79 131 C-79.12117188 131.72316406 -79.24234375 132.44632813 -79.3671875 133.19140625 C-81.14160445 141.06675061 -85.15206682 147.64775803 -92 152 C-96.12703852 153.85295607 -99.49867536 154.21434879 -104 154 C-104.2475 155.093125 -104.495 156.18625 -104.75 157.3125 C-105.85760661 161.82318778 -107.48503606 166.07357635 -109.1953125 170.38671875 C-110.05314845 173.17260347 -110.426309 175.11163675 -110 178 C-104.48229371 183.93117783 -95.42470987 186.40651556 -88 189 C-88 189.33 -88 189.66 -88 190 C-89.74965358 190.05429959 -91.49979787 190.09292823 -93.25 190.125 C-94.22453125 190.14820313 -95.1990625 190.17140625 -96.203125 190.1953125 C-99.0196498 189.99862781 -100.60949036 189.44568916 -103 188 C-103 188.66 -103 189.32 -103 190 C-104.32 190 -105.64 190 -107 190 C-107.020625 189.29875 -107.04125 188.5975 -107.0625 187.875 C-108.28773819 184.11760287 -110.32310153 183.06304331 -113.6015625 181.015625 C-115.63338623 178.08707459 -115.0924496 175.92856513 -114.56445312 172.49169922 C-113.6140285 168.29618292 -112.08530921 164.40203107 -110.4375 160.4375 C-110.10814453 159.61958984 -109.77878906 158.80167969 -109.43945312 157.95898438 C-108.63631085 155.9685883 -107.81958033 153.98368398 -107 152 C-107.61488281 151.89816406 -108.22976562 151.79632813 -108.86328125 151.69140625 C-111.8672137 150.71938423 -112.75570737 148.75367273 -114.18359375 146.0546875 C-115.50777662 142.72205501 -115.74969862 139.56679464 -116 136 C-114.02 135.01 -114.02 135.01 -112 134 C-111.87882812 134.66386719 -111.75765625 135.32773438 -111.6328125 136.01171875 C-111.46523437 136.89472656 -111.29765625 137.77773437 -111.125 138.6875 C-110.96257812 139.55761719 -110.80015625 140.42773438 -110.6328125 141.32421875 C-109.99419952 144.02452671 -109.09215515 146.45316762 -108 149 C-99.48124245 149.59026322 -99.48124245 149.59026322 -92 146 C-91.34 146 -90.68 146 -90 146 C-88.59657851 143.24305645 -87.30080389 140.45967155 -86.0625 137.625 C-81.62260832 127.65156684 -81.62260832 127.65156684 -78.3125 124.1875 C-75.68619231 120.56745427 -75.15151533 118.63771262 -75.359375 114.2578125 C-76.54266704 110.08742959 -79.69510474 107.62199599 -83 105 C-82.34 103.35 -81.68 101.7 -81 100 C-82.03125 100.495 -83.0625 100.99 -84.125 101.5 C-87.52451578 102.97473902 -90.27021549 103.27291106 -94 103 C-93 100 -93 100 -91.328125 98.83203125 C-83.94665215 95.21066957 -83.94665215 95.21066957 -80 96 C-76.36692924 98.287489 -76.11234265 102.07408476 -75 106 C-74.32142874 107.18422475 -73.61227462 108.35140375 -72.875 109.5 C-70.74011675 113.48511539 -70.43326969 115.54711899 -71 120 C-71.96887581 122.01526169 -72.9641321 124.01833966 -74 126 C-71.97063397 132.08809809 -64.08055161 134.94045983 -58.625 137.71875 C-47.76719815 143.17964038 -47.76719815 143.17964038 -36 143 C-35.67 143.99 -35.34 144.98 -35 146 C-31.85434954 146.08845016 -28.70902625 146.14086835 -25.5625 146.1875 C-24.68400391 146.21263672 -23.80550781 146.23777344 -22.90039062 146.26367188 C-16.71986094 146.33209102 -11.72459913 145.32816113 -6 143 C-6.73233973 141.34623282 -7.48652714 139.70212696 -8.25 138.0625 C-8.66765625 137.14597656 -9.0853125 136.22945312 -9.515625 135.28515625 C-10.78553949 132.83550383 -10.78553949 132.83550383 -13.171875 132.18359375 C-13.77515625 132.12300781 -14.3784375 132.06242188 -15 132 C-15 130.68 -15 129.36 -15 128 C-14.14019531 127.97421875 -13.28039062 127.9484375 -12.39453125 127.921875 C3.21592331 127.17284556 16.44803858 122.72682132 28 112 C37.72079146 100.7881708 38.57899655 88.43153467 38.5625 74.25 C38.56630676 73.18477112 38.56630676 73.18477112 38.57019043 72.09802246 C38.56688824 63.9109406 37.87163942 56.43637929 35.63012695 48.50683594 C34.83980249 45.36268579 34.8862076 42.70365197 35.3125 39.5 C37.28626684 23.87444796 37.28626684 23.87444796 32.1875 9.5625 C28.27412016 6.76722869 24.25485596 5.73448653 19.55078125 5 C18.53822266 4.835 17.52566406 4.67 16.48242188 4.5 C14.35770559 4.16486299 12.23270104 3.83154873 10.10742188 3.5 C9.09873047 3.335 8.09003906 3.17 7.05078125 3 C6.12950439 2.855625 5.20822754 2.71125 4.2590332 2.5625 C2 2 2 2 0 0 Z " fill="#4F474A" transform="translate(197,24)"/>
<path d="M0 0 C-0.309375 0.680625 -0.61875 1.36125 -0.9375 2.0625 C-1.34457229 5.00602487 -1.34457229 5.00602487 0.4921875 6.57421875 C1.13414063 7.12722656 1.77609375 7.68023437 2.4375 8.25 C5.31720488 10.90996836 6.58324684 12.53526885 6.8125 16.5 C6.45422667 20.94109645 4.70393273 22.91124539 1.65234375 25.984375 C-1.07105242 29.30653204 -2.29572079 33.22783973 -3.859375 37.19140625 C-6.13113917 42.78523651 -8.70949878 46.53607588 -14.0625 49.31640625 C-18.41886245 50.85342929 -22.64749493 50.45083502 -27 49 C-31.42579063 43.1832466 -31.70788322 38.16595625 -31 31 C-29.03480739 21.88865242 -21.06473644 9.96659088 -14 4 C-11.67793475 3.29508733 -9.34406932 2.62787571 -7 2 C-4 0 -4 0 0 0 Z " fill="#FBFBFA" transform="translate(116,124)"/>
<path d="M0 0 C0 0.99 0 1.98 0 3 C0.66 3 1.32 3 2 3 C3.80116392 6.10001122 4.2961501 8.42482097 4.3125 12 C4.32925781 12.845625 4.34601563 13.69125 4.36328125 14.5625 C3.92731274 17.48770804 3.02443938 18.87212211 1 21 C0.34 21 -0.32 21 -1 21 C-1.144375 21.639375 -1.28875 22.27875 -1.4375 22.9375 C-2 25 -2 25 -3 26 C-5.07939836 26.15272417 -7.16518931 26.22195322 -9.25 26.25 C-10.38953125 26.27578125 -11.5290625 26.3015625 -12.703125 26.328125 C-16.32719032 25.96743603 -18.11995112 25.185569 -21 23 C-23.3872206 19.41916909 -24.1257166 17.8574897 -24.09765625 13.6484375 C-24.09443359 12.79765625 -24.09121094 11.946875 -24.08789062 11.0703125 C-24.07951172 10.18085937 -24.07113281 9.29140625 -24.0625 8.375 C-24.05798828 7.4778125 -24.05347656 6.580625 -24.04882812 5.65625 C-24.03702591 3.43743352 -24.02056155 1.21874982 -24 -1 C-23.34 0.32 -22.68 1.64 -22 3 C-21.34 3 -20.68 3 -20 3 C-19.67 2.01 -19.34 1.02 -19 0 C-13.51282526 -4.17025281 -5.94083713 -1.98027904 0 0 Z " fill="#FBD8D5" transform="translate(89,97)"/>
<path d="M0 0 C0 0.66 0 1.32 0 2 C0.763125 2.12375 1.52625 2.2475 2.3125 2.375 C5 3 5 3 8 5 C10.76476141 9.65644026 10.1828269 14.76911935 10 20 C9.360625 20.28875 8.72125 20.5775 8.0625 20.875 C5.84793921 21.82823451 5.84793921 21.82823451 5 24 C4 26 4 26 2.375 27.25 C-2.64556186 28.83544059 -6.82312271 28.35306319 -11.75 26.875 C-15.64233846 24.62942012 -17.11146658 23.07923219 -19 19 C-19.30242873 15.96579705 -19.24291374 13.03642178 -19 10 C-18.34 10 -17.68 10 -17 10 C-16.896875 9.236875 -16.79375 8.47375 -16.6875 7.6875 C-15.92953731 4.72455494 -15.41193803 3.80895352 -13 2 C-8.63308079 -0.37061328 -4.84821346 -0.16434622 0 0 Z " fill="#FCD9D4" transform="translate(192,102)"/>
<path d="M0 0 C2.54615009 0.23172827 5.07396225 0.41894529 7.625 0.5625 C8.33140625 0.60568359 9.0378125 0.64886719 9.765625 0.69335938 C11.51018537 0.79944751 13.25506697 0.90022889 15 1 C15 1.33 15 1.66 15 2 C10.71 2.33 6.42 2.66 2 3 C4.31 3.33 6.62 3.66 9 4 C9 4.33 9 4.66 9 5 C0.35047601 5.92673471 -6.28728431 2.86329699 -14.15820312 -0.27783203 C-34.99906517 -8.44952741 -59.52511224 -8.23096703 -80.8671875 -1.8828125 C-83.89851993 -1.02859663 -85.17012534 -0.74227793 -88 -2 C-88.66 -2.66 -89.32 -3.32 -90 -4 C-90 -3.34 -90 -2.68 -90 -2 C-92.08203125 -0.59765625 -92.08203125 -0.59765625 -94.8125 0.9375 C-97.99203753 2.7314382 -100.43973209 4.4243551 -103 7 C-103.66 7 -104.32 7 -105 7 C-105.268125 7.61875 -105.53625 8.2375 -105.8125 8.875 C-107 11 -107 11 -110 13 C-110 12.34 -110 11.68 -110 11 C-110.99 10.34 -111.98 9.68 -113 9 C-111.94720893 7.41019446 -110.88227303 5.82842844 -109.8125 4.25 C-109.22082031 3.36828125 -108.62914063 2.4865625 -108.01953125 1.578125 C-102.54942177 -5.40499349 -96.46090474 -6.69564675 -88 -8 C-84.41358938 -8.33011568 -80.82299342 -8.5047074 -77.22509766 -8.65478516 C-73.09349633 -8.83571088 -69.19071867 -9.24366995 -65.125 -10.0625 C-43.3327788 -13.98688363 -19.70110034 -9.85055017 0 0 Z " fill="#554A49" transform="translate(197,22)"/>
<path d="M0 0 C0.38003892 6.84070062 -0.02849971 14.08182705 -4.32421875 19.74609375 C-6.77380978 22.01566234 -8.78195051 22.96440008 -12.0625 23.5 C-15.56068745 22.90456384 -17.27146986 22.29770959 -20 20 C-22.6599995 15.91902357 -24 12.92367773 -24 8 C-22.99839844 7.67386719 -21.99679688 7.34773437 -20.96484375 7.01171875 C-19.6223418 6.57047685 -18.27989693 6.12906129 -16.9375 5.6875 C-16.28072266 5.47416016 -15.62394531 5.26082031 -14.94726562 5.04101562 C-11.60288179 3.93720421 -8.35250346 2.75369027 -5.12890625 1.33203125 C-2 0 -2 0 0 0 Z " fill="#F8F6F4" transform="translate(188,186)"/>
<path d="M0 0 C0 0.99 0 1.98 0 3 C-0.66 3 -1.32 3 -2 3 C-1.938125 4.03125 -1.87625 5.0625 -1.8125 6.125 C-1.85481582 14.03805843 -2.81671416 23.10477299 -8.0625 29.3125 C-12.50339384 33.37544542 -15.3556157 33.42040211 -21.23828125 33.328125 C-24.39411742 32.95317417 -26.51297323 32.05488634 -28.78515625 29.76953125 C-31.45050508 25.88720643 -34 20.78011999 -34 16 C-34.99 16 -35.98 16 -37 16 C-36.67 14.68 -36.34 13.36 -36 12 C-34.20755859 11.52820313 -34.20755859 11.52820313 -32.37890625 11.046875 C-18.76331624 7.45176271 -18.76331624 7.45176271 -6.1875 1.25 C-4 0 -4 0 0 0 Z M-14.0625 9.3125 C-19.33367918 11.37411675 -24.6133266 13.26530857 -30 15 C-29.56604691 20.42441362 -28.45068767 23.76058371 -25 28 C-21.79592697 30.34965355 -18.89725235 30.54561533 -15 30 C-10.49678457 27.35104974 -8.75184499 25.14441265 -7.125 20.1875 C-5.96803566 15.67466247 -5.74229699 11.63865427 -6 7 C-8.97737942 7 -11.3022624 8.21809 -14.0625 9.3125 Z " fill="#49494D" transform="translate(194,179)"/>
<path d="M0 0 C0.33 0 0.66 0 1 0 C1.10017029 4.47992337 1.17206949 8.95922384 1.21972656 13.43994141 C1.23962882 14.95861185 1.26676104 16.47720788 1.30175781 17.99560547 C1.57183643 30.02999077 0.80286208 41.13167442 -7 51 C-7.39574219 51.54914063 -7.79148438 52.09828125 -8.19921875 52.6640625 C-15.55513847 62.23308128 -27.39260362 67.5650472 -39 70 C-41.33300933 70.03888349 -43.66709801 70.0448635 -46 70 C-43.15584037 68.10389358 -40.6727987 67.03569739 -37.5 65.8125 C-29.06206582 62.34527614 -21.06838651 57.93529887 -15 51 C-14.51015625 50.47792969 -14.0203125 49.95585937 -13.515625 49.41796875 C-1.38342443 36.1145904 -1.59635516 17.10917121 0 0 Z " fill="#D4C8C7" transform="translate(235,82)"/>
<path d="M0 0 C2.7810037 1.71894268 3.35450122 2.98325224 5 6 C5.51756902 10.28842905 5.35039116 13.32751381 3 17 C-2.5715702 17.34822314 -7.04239837 16.6934156 -12 14 C-14.5625 11.625 -14.5625 11.625 -16 9 C-15.92821445 5.98500702 -15.47278442 4.57556364 -13.5625 2.25 C-9.57151249 -0.94279001 -4.88720732 -0.7979114 0 0 Z " fill="#A3D1E6" transform="translate(120,187)"/>
<path d="M0 0 C2.83326739 2.04715852 4.72157049 3.61432756 5.43041992 7.14208984 C5.56477244 9.65460986 5.53463251 12.11098206 5.4375 14.625 C5.43169922 15.48351562 5.42589844 16.34203125 5.41992188 17.2265625 C5.2963091 23.55553634 5.2963091 23.55553634 3 27 C-0.875 26.125 -0.875 26.125 -2 25 C-2.23701239 22.14122091 -2.42219182 19.30116703 -2.5625 16.4375 C-2.60568359 15.63119141 -2.64886719 14.82488281 -2.69335938 13.99414062 C-2.79975262 11.99631195 -2.90040888 9.9981793 -3 8 C-5.43740451 7.86970026 -5.43740451 7.86970026 -8 8 C-8.495 8.515625 -8.99 9.03125 -9.5 9.5625 C-9.995 10.036875 -10.49 10.51125 -11 11 C-13.6875 10.6875 -13.6875 10.6875 -16 10 C-14.75892597 5.03570389 -13.23893588 2.86128172 -9 0 C-5.77509551 -1.61245225 -3.43772273 -0.81573082 0 0 Z " fill="#483A37" transform="translate(37,25)"/>
<path d="M0 0 C6.6 0 13.2 0 20 0 C13.30985915 17.6056338 13.30985915 17.6056338 9 20 C5.75 20.1875 5.75 20.1875 3 20 C0.97657309 15.95314619 1.46276439 10.89594196 2.671875 6.62890625 C3.3896367 4.72954627 4.18793052 2.86099257 5 1 C3.35 1 1.7 1 0 1 C0 0.67 0 0.34 0 0 Z " fill="#CDC4C3" transform="translate(138,15)"/>
<path d="M0 0 C0 0.33 0 0.66 0 1 C-1.65 1 -3.3 1 -5 1 C-5 1.66 -5 2.32 -5 3 C-5.66 3 -6.32 3 -7 3 C-6.67 3.99 -6.34 4.98 -6 6 C-8.31 6.33 -10.62 6.66 -13 7 C-13 6.34 -13 5.68 -13 5 C-13.66 4.67 -14.32 4.34 -15 4 C-15 4.66 -15 5.32 -15 6 C-17.08203125 7.40234375 -17.08203125 7.40234375 -19.8125 8.9375 C-22.99203753 10.7314382 -25.43973209 12.4243551 -28 15 C-28.66 15 -29.32 15 -30 15 C-30.268125 15.61875 -30.53625 16.2375 -30.8125 16.875 C-32 19 -32 19 -35 21 C-35 20.34 -35 19.68 -35 19 C-35.99 18.34 -36.98 17.68 -38 17 C-36.94720893 15.41019446 -35.88227303 13.82842844 -34.8125 12.25 C-34.22082031 11.36828125 -33.62914063 10.4865625 -33.01953125 9.578125 C-24.98678935 -0.67643913 -12.07884355 -0.53376232 0 0 Z " fill="#554B4A" transform="translate(122,14)"/>
<path d="M0 0 C0.99 0.33 1.98 0.66 3 1 C4.23076923 6.41538462 4.23076923 6.41538462 3.0625 9.375 C2.5365625 10.179375 2.5365625 10.179375 2 11 C2.66 11.33 3.32 11.66 4 12 C4.85375977 13.93017578 4.85375977 13.93017578 5.69140625 16.4453125 C6.14870117 17.81429687 6.14870117 17.81429687 6.61523438 19.2109375 C6.92783203 20.17257813 7.24042969 21.13421875 7.5625 22.125 C7.87896484 23.0634375 8.19542969 24.001875 8.52148438 24.96875 C10.17767627 29.99007066 11.4677889 34.73621352 12 40 C6.63809899 42.61407872 1.96564796 44.49228528 -4 45 C-1.27521226 41.63408573 2.06856792 40.55773724 6 39 C5.59167517 32.50904325 4.49475663 26.57825769 2.62109375 20.34765625 C2 18 2 18 2 15 C0.68 14.67 -0.64 14.34 -2 14 C-1.34 14 -0.68 14 0 14 C0 13.01 0 12.02 0 11 C-0.99 10.67 -1.98 10.34 -3 10 C-2.34 9.67 -1.68 9.34 -1 9 C-0.67 8.01 -0.34 7.02 0 6 C-0.85271484 6.23396484 -0.85271484 6.23396484 -1.72265625 6.47265625 C-6.91917736 7.78263069 -10.75414995 8.11613831 -16 7 C-16 6.67 -16 6.34 -16 6 C-15.18015625 5.81824219 -14.3603125 5.63648438 -13.515625 5.44921875 C-12.43796875 5.19785156 -11.3603125 4.94648438 -10.25 4.6875 C-9.18265625 4.44386719 -8.1153125 4.20023438 -7.015625 3.94921875 C-3.98079456 3.17977449 -3.98079456 3.17977449 -1.796875 1.33203125 C-1.20390625 0.89246094 -0.6109375 0.45289063 0 0 Z " fill="#A7CADB" transform="translate(194,168)"/>
<path d="M0 0 C4.29 0.66 8.58 1.32 13 2 C8.40248276 14.90841379 8.40248276 14.90841379 3 19 C-0.375 19.4375 -0.375 19.4375 -3 19 C-4.68721658 11.54812675 -2.89797583 7.02539596 0 0 Z " fill="#D0C6C5" transform="translate(163,16)"/>
<path d="M0 0 C4.14822958 0.8642145 5.60540961 2.14195943 8 5.625 C8.38008358 8.54086511 8.06994594 10.88806645 7 13.625 C4.22376431 16.24259365 2.73587931 16.625 -1.0625 16.625 C-4.78688455 15.35712441 -6.01115897 13.99073097 -8 10.625 C-8.5625 8.125 -8.5625 8.125 -8 5.625 C-5.53235541 2.35899981 -4.04381805 0.84246209 0 0 Z " fill="#4F4041" transform="translate(160,81.375)"/>
<path d="M0 0 C2.875 1.5 2.875 1.5 5 4 C5.71773256 6.82462492 5.71070236 9.17452478 5 12 C2.9375 14.5625 2.9375 14.5625 0 16 C-3.46758942 15.94021398 -5.88826749 15.60965977 -8.9375 13.9375 C-10.69220303 10.73774742 -10.626852 7.5005106 -10 4 C-7.30203057 -0.15072221 -4.80768487 -0.78492814 0 0 Z " fill="#4E4141" transform="translate(102,76)"/>
<path d="M0 0 C1.32 0.66 2.64 1.32 4 2 C4 2.66 4 3.32 4 4 C3.32195312 4.31710938 2.64390625 4.63421875 1.9453125 4.9609375 C-8.36357878 10.12966138 -15.90823706 17.26621745 -21.6484375 27.28515625 C-23.29562819 29.37508894 -24.4114925 29.64201492 -27 30 C-28.35606055 25.55829268 -27.59120114 23.2943828 -25.5625 19.1875 C-25.08941406 18.21167969 -24.61632812 17.23585938 -24.12890625 16.23046875 C-23.75636719 15.49441406 -23.38382812 14.75835937 -23 14 C-22.4225 14.2475 -21.845 14.495 -21.25 14.75 C-20.5075 14.8325 -19.765 14.915 -19 15 C-16.9853059 13.29428223 -16.9853059 13.29428223 -15 11 C-13.19424237 9.56867153 -11.35919505 8.17369638 -9.5 6.8125 C-8.09234375 5.77029297 -8.09234375 5.77029297 -6.65625 4.70703125 C-4.31029476 3.19941001 -2.71723919 2.42937506 0 2 C0 1.34 0 0.68 0 0 Z " fill="#4D4241" transform="translate(107,18)"/>
<path d="M0 0 C0.66 0 1.32 0 2 0 C2.34782256 7.30427374 2.04190621 13.78812987 -2.37109375 19.8984375 C-5.7844136 23.38542612 -8.69975289 24.43609267 -13.5625 24.6875 C-17.22477141 24.4812457 -19.66083083 24.03293089 -22.5625 21.75 C-26.24723247 17.59286593 -26.24723247 17.59286593 -27 15 C-26.625 12.75 -26.625 12.75 -26 11 C-21 16 -21 16 -19.3125 17.75 C-17.27742094 19.68817053 -16.0082734 19.99908073 -13.1875 20.3125 C-9.09913412 19.91167982 -7.88575448 18.9085128 -5 16 C-3.73314132 13.33350986 -2.95411281 10.59526461 -2.1875 7.75 C-1.97158203 7.00492188 -1.75566406 6.25984375 -1.53320312 5.4921875 C-1.00639666 3.66592508 -0.50101604 1.8335055 0 0 Z " fill="#444245" transform="translate(189,188)"/>
<path d="M0 0 C-1.81710937 4.99705078 -4.38922934 12.04910678 -9 15 C-12.34192692 14.75546876 -13.60543557 14.39456443 -16 12 C-16.38079379 8.38245897 -15.84651134 6.11598788 -14 3 C-14.66 2.67 -15.32 2.34 -16 2 C-14.08404518 1.66259915 -12.16720278 1.33023588 -10.25 1 C-9.18265625 0.814375 -8.1153125 0.62875 -7.015625 0.4375 C-4 0 -4 0 0 0 Z " fill="#CEC3C3" transform="translate(136,16)"/>
<path d="M0 0 C7.2170859 0.3762098 13.29488122 1.8540815 20 4.5 C20.84433594 4.82097656 21.68867188 5.14195313 22.55859375 5.47265625 C28.4545068 7.7272534 28.4545068 7.7272534 31 9 C33.54615009 9.23172827 36.07396225 9.41894529 38.625 9.5625 C39.33140625 9.60568359 40.0378125 9.64886719 40.765625 9.69335938 C42.51018537 9.79944751 44.25506697 9.90022889 46 10 C46 10.33 46 10.66 46 11 C39.565 11.495 39.565 11.495 33 12 C35.31 12.33 37.62 12.66 40 13 C40 13.33 40 13.66 40 14 C31.35508537 14.92624085 24.73268532 11.86779639 16.86816406 8.7265625 C10.70876676 6.33106245 4.56249025 4.71331416 -2 4 C-1.34 2.68 -0.68 1.36 0 0 Z " fill="#534948" transform="translate(166,13)"/>
<path d="M0 0 C0.33 0 0.66 0 1 0 C1.05413245 2.89608593 1.09373641 5.79115195 1.125 8.6875 C1.14175781 9.50412109 1.15851563 10.32074219 1.17578125 11.16210938 C1.23107232 17.9905571 -0.35645597 22.20345268 -4 28 C-3.34 28.66 -2.68 29.32 -2 30 C-3 31 -3 31 -5.22485352 31.11352539 C-6.18319092 31.10828857 -7.14152832 31.10305176 -8.12890625 31.09765625 C-9.68061523 31.09282227 -9.68061523 31.09282227 -11.26367188 31.08789062 C-12.35228516 31.07951172 -13.44089844 31.07113281 -14.5625 31.0625 C-16.2012207 31.05573242 -16.2012207 31.05573242 -17.87304688 31.04882812 C-20.58208495 31.03699826 -23.29101599 31.02051543 -26 31 C-25.67 30.01 -25.34 29.02 -25 28 C-25.66 28 -26.32 28 -27 28 C-27 27.01 -27 26.02 -27 25 C-23.125 26.875 -23.125 26.875 -22 28 C-17.03622877 28.59193183 -11.70361368 29.15933944 -7.5 26.0625 C-1.45816795 18.66125574 -1.11376439 9.21148664 0 0 Z " fill="#B3D0DD" transform="translate(192,183)"/>
<path d="M0 0 C1.8902783 2.83541745 3.12012965 5.52029171 4.5 8.625 C7.38063 14.52957492 10.94296579 18.16645917 16.0234375 22.2578125 C16.67570312 22.83273438 17.32796875 23.40765625 18 24 C18 24.66 18 25.32 18 26 C13.42138292 26 11.13274491 24.55579399 7.9375 21.5 C3.33558799 16.56243989 -1.2313034 11.02676397 -1.375 4 C-1 1 -1 1 0 0 Z " fill="#4C4141" transform="translate(64,112)"/>
<path d="M0 0 C2.14655501 0.30750371 4.29223285 0.6211366 6.4375 0.9375 C8.22994141 1.19853516 8.22994141 1.19853516 10.05859375 1.46484375 C13 2 13 2 14 3 C14.07244053 5.01964199 14.08377188 7.04167124 14.0625 9.0625 C14.05347656 10.16722656 14.04445312 11.27195312 14.03515625 12.41015625 C14.02355469 13.26480469 14.01195312 14.11945312 14 15 C13.01 15 12.02 15 11 15 C10.7525 14.278125 10.505 13.55625 10.25 12.8125 C7.9370006 7.60825134 4.04182173 3.9295489 0 0 Z " fill="#CFC5C5" transform="translate(210,36)"/>
<path d="M0 0 C0.99 0 1.98 0 3 0 C3 2.62113708 2.68707555 4.50935112 2 7 C2.66 7 3.32 7 4 7 C4.33 6.34 4.66 5.68 5 5 C7 7 7 7 7.265625 9.05859375 C7.26046875 9.84363281 7.2553125 10.62867188 7.25 11.4375 C7.25515625 12.21996094 7.2603125 13.00242187 7.265625 13.80859375 C7 16 7 16 5 19 C1.125 18.125 1.125 18.125 0 17 C-0.07325168 14.13732433 -0.09238205 11.299281 -0.0625 8.4375 C-0.05798828 7.63119141 -0.05347656 6.82488281 -0.04882812 5.99414062 C-0.03700518 3.99606244 -0.01906914 1.99802217 0 0 Z " fill="#504140" transform="translate(35,33)"/>
<path d="M0 0 C3 0.1875 3 0.1875 6 1 C8 4 8 4 7.8125 6 C6.84813661 8.37381759 6.1310781 9.55391129 4 11 C1.4375 10.875 1.4375 10.875 -1 10 C-3 7 -3 7 -2.75 4.4375 C-2 2 -2 2 0 0 Z " fill="#534948" transform="translate(42,54)"/>
<path d="M0 0 C1.6875 1.5625 1.6875 1.5625 3 3 C1.9275 3.226875 0.855 3.45375 -0.25 3.6875 C-6.06510697 5.72278744 -8.0464886 9.83135506 -11 15 C-13 12 -13 12 -13 9.75 C-11.56267256 5.79734955 -9.07687382 2.84725637 -6 0 C-3 -1 -3 -1 0 0 Z " fill="#524548" transform="translate(105,125)"/>
<path d="M0 0 C0.66 0.66 1.32 1.32 2 2 C2.66 1.34 3.32 0.68 4 0 C4 7.92 4 15.84 4 24 C3.67 24 3.34 24 3 24 C2.67 21.36 2.34 18.72 2 16 C1.34 17.32 0.68 18.64 0 20 C0 13.4 0 6.8 0 0 Z " fill="#5A4B4C" transform="translate(236,88)"/>
<path d="M0 0 C0.33 0.66 0.66 1.32 1 2 C2.32 2 3.64 2 5 2 C5 2.66 5 3.32 5 4 C5.66 4 6.32 4 7 4 C6.67 5.65 6.34 7.3 6 9 C1.25 10.125 1.25 10.125 -1 9 C-1 7.68 -1 6.36 -1 5 C-1.99 5 -2.98 5 -4 5 C-4 4.34 -4 3.68 -4 3 C-4.66 2.67 -5.32 2.34 -6 2 C-4.02 1.34 -2.04 0.68 0 0 Z " fill="#A1D0E8" transform="translate(105,175)"/>
<path d="M0 0 C3.63 0 7.26 0 11 0 C11 0.66 11 1.32 11 2 C10.01 2 9.02 2 8 2 C8.66 3.051875 9.32 4.10375 10 5.1875 C11.7771585 8.26623937 12.43806506 10.38596328 12 14 C9.39294935 11.53387101 7.21794507 9.38358332 5.4375 6.25 C4.20776413 3.82720174 4.20776413 3.82720174 1.8125 3.1875 C1.214375 3.125625 0.61625 3.06375 0 3 C0 2.01 0 1.02 0 0 Z " fill="#4D3E3C" transform="translate(182,153)"/>
<path d="M0 0 C3.74248692 0.6326585 7.22976756 2.18960935 10.75 3.5625 C12.50570312 4.24505859 12.50570312 4.24505859 14.296875 4.94140625 C15.18890625 5.29074219 16.0809375 5.64007813 17 6 C17 6.33 17 6.66 17 7 C15.25034642 7.05429959 13.50020213 7.09292823 11.75 7.125 C10.77546875 7.14820313 9.8009375 7.17140625 8.796875 7.1953125 C5.9803502 6.99862781 4.39050964 6.44568916 2 5 C2 5.66 2 6.32 2 7 C1.01 7 0.02 7 -1 7 C-1.04254356 5.00045254 -1.04080783 2.99958364 -1 1 C-0.67 0.67 -0.34 0.34 0 0 Z " fill="#454044" transform="translate(92,207)"/>
<path d="M0 0 C1.8125 1.25 1.8125 1.25 3 3 C3 4.32 3 5.64 3 7 C2.01 7 1.02 7 0 7 C0 6.01 0 5.02 0 4 C-4.33229715 4.8604139 -4.33229715 4.8604139 -8 7 C-9.99958364 7.04080783 -12.00045254 7.04254356 -14 7 C-13 4 -13 4 -11.328125 2.83203125 C-3.94665215 -0.78933043 -3.94665215 -0.78933043 0 0 Z " fill="#48403E" transform="translate(117,120)"/>
<path d="M0 0 C0.66 0 1.32 0 2 0 C2.98678898 2.85172962 3.96456818 5.70604342 4.9375 8.5625 C5.21529297 9.36236328 5.49308594 10.16222656 5.77929688 10.98632812 C7.3684451 15.67718736 8.47747981 20.07243618 9 25 C7.68 25.33 6.36 25.66 5 26 C4.896875 24.989375 4.79375 23.97875 4.6875 22.9375 C3.74044079 15.30612437 2.43225034 7.29675102 0 0 Z " fill="#9FBBCA" transform="translate(197,183)"/>
<path d="M0 0 C3 0.125 3 0.125 4 1.125 C4.1875 3.5625 4.1875 3.5625 4 6.125 C2 8.125 2 8.125 -0.5625 8.3125 C-3 8.125 -3 8.125 -4 7.125 C-4.125 4.125 -4.125 4.125 -4 1.125 C-3 0.125 -3 0.125 0 0 Z " fill="#A5D2E7" transform="translate(129,177.875)"/>
<path d="M0 0 C0.33 0.99 0.66 1.98 1 3 C1.66 3.33 2.32 3.66 3 4 C-2.96583144 11.66742597 -2.96583144 11.66742597 -8 13 C-8.66 11.68 -9.32 10.36 -10 9 C-5.25 6 -5.25 6 -3 6 C-2.690625 5.38125 -2.38125 4.7625 -2.0625 4.125 C-1.375 2.75 -0.6875 1.375 0 0 Z " fill="#534E53" transform="translate(110,164)"/>
<path d="M0 0 C1.66611905 -0.042721 3.33382885 -0.04063832 5 0 C7.09570947 2.09570947 6.37238899 6.5284417 6.5 9.4375 C6.50937661 14.88504143 6.50937661 14.88504143 8 20 C7.67 20.66 7.34 21.32 7 22 C6.34 22 5.68 22 5 22 C5 21.01 5 20.02 5 19 C4.34 18.67 3.68 18.34 3 18 C3.66 18 4.32 18 5 18 C4.67 14.7 4.34 11.4 4 8 C3.01 7.67 2.02 7.34 1 7 C0.67 4.69 0.34 2.38 0 0 Z " fill="#F6F4F3" transform="translate(29,32)"/>
<path d="M0 0 C-0.68707031 0.39832031 -1.37414062 0.79664062 -2.08203125 1.20703125 C-2.98308594 1.73683594 -3.88414063 2.26664063 -4.8125 2.8125 C-5.70582031 3.33457031 -6.59914063 3.85664063 -7.51953125 4.39453125 C-9.98801278 5.86940652 -9.98801278 5.86940652 -11.69921875 7.69921875 C-12.12847656 8.12847656 -12.55773437 8.55773438 -13 9 C-13.66 9 -14.32 9 -15 9 C-15.268125 9.61875 -15.53625 10.2375 -15.8125 10.875 C-17 13 -17 13 -20 15 C-17.6790063 8.30938042 -13.12101002 2.56050501 -6.75 -0.625 C-4.0412654 -0.9943729 -2.5733569 -0.73681586 0 0 Z " fill="#E6DEDD" transform="translate(107,20)"/>
<path d="M0 0 C2.31 0.33 4.62 0.66 7 1 C6.125 6.875 6.125 6.875 5 8 C2.5 8.125 2.5 8.125 0 8 C-0.33 7.67 -0.66 7.34 -1 7 C-0.71269945 4.66055264 -0.38063221 2.3260857 0 0 Z " fill="#A4D1E6" transform="translate(129,190)"/>
<path d="M0 0 C-0.33 0.66 -0.66 1.32 -1 2 C-1.66 2 -2.32 2 -3 2 C-3 2.99 -3 3.98 -3 5 C-8.61 5 -14.22 5 -20 5 C-13.98067039 0.98711359 -7.16300229 -0.46715232 0 0 Z " fill="#434447" transform="translate(209,209)"/>
<path d="M0 0 C5.95507399 0.3916035 10.62819824 1.37124595 16 4 C16 4.66 16 5.32 16 6 C9.741346 6.5326514 5.54891215 4.81849506 0 2 C0 1.34 0 0.68 0 0 Z " fill="#47454A" transform="translate(143,166)"/>
<path d="M0 0 C6.27 0 12.54 0 19 0 C19.33 0.99 19.66 1.98 20 3 C15.84563201 4.09899791 12.53970101 3.85748967 8.3125 3.1875 C7.17425781 3.01605469 6.03601563 2.84460938 4.86328125 2.66796875 C2 2 2 2 0 0 Z " fill="#433938" transform="translate(197,24)"/>
<path d="M0 0 C1.67542976 0.28604898 3.34385343 0.61781233 5 1 C6.125 5.75 6.125 5.75 5 8 C2.625 8.125 2.625 8.125 0 8 C-0.66 7.34 -1.32 6.68 -2 6 C-1.44444444 1.44444444 -1.44444444 1.44444444 0 0 Z " fill="#A4D1E6" transform="translate(117,173)"/>
<path d="M0 0 C0.33 0.99 0.66 1.98 1 3 C1.99 3 2.98 3 4 3 C5.38671875 4.53125 5.38671875 4.53125 6.6875 6.5 C7.12449219 7.1496875 7.56148437 7.799375 8.01171875 8.46875 C8.33785156 8.9740625 8.66398437 9.479375 9 10 C8.67 10.66 8.34 11.32 8 12 C3.56541027 10.6062718 1.12621626 8.39417765 -2 5 C-1.34 3.35 -0.68 1.7 0 0 Z " fill="#5B5151" transform="translate(116,124)"/>
<path d="M0 0 C1.24136719 0.47566406 1.24136719 0.47566406 2.5078125 0.9609375 C6.31847819 2.09475973 9.93226312 2.44161689 13.875 2.625 C14.56335938 2.66367187 15.25171875 2.70234375 15.9609375 2.7421875 C17.64023246 2.83548166 19.32007767 2.91878238 21 3 C21 3.33 21 3.66 21 4 C14.565 4.495 14.565 4.495 8 5 C10.31 5.33 12.62 5.66 15 6 C15 6.33 15 6.66 15 7 C8.80112515 7.37952295 4.5522888 6.8352113 -1 4 C-0.34 3.67 0.32 3.34 1 3 C0.67 2.01 0.34 1.02 0 0 Z " fill="#635B59" transform="translate(191,20)"/>
<path d="M0 0 C0.33 0.66 0.66 1.32 1 2 C3.3140622 2.73075648 5.64828869 3.40138258 8 4 C7.401875 4.268125 6.80375 4.53625 6.1875 4.8125 C3.94430723 5.86047309 3.94430723 5.86047309 2.5625 7.6875 C2.046875 8.120625 1.53125 8.55375 1 9 C-1.6875 8.6875 -1.6875 8.6875 -4 8 C-2.25 2.25 -2.25 2.25 0 0 Z " fill="#504445" transform="translate(25,27)"/>
<path d="M0 0 C-3.58375776 3.58375776 -9.13500141 3.92387761 -14.0625 4.125 C-14.701875 4.08375 -15.34125 4.0425 -16 4 C-16 3.34 -16 2.68 -16 2 C-15.34 2 -14.68 2 -14 2 C-14 1.34 -14 0.68 -14 0 C-9.20699867 -1.39151652 -4.84864218 -0.68662689 0 0 Z " fill="#483D3E" transform="translate(131,15)"/>
<path d="M0 0 C1.16144531 0.00902344 2.32289062 0.01804687 3.51953125 0.02734375 C4.39996094 0.03894531 5.28039062 0.05054688 6.1875 0.0625 C6.1875 0.3925 6.1875 0.7225 6.1875 1.0625 C4.5375 1.0625 2.8875 1.0625 1.1875 1.0625 C1.1875 1.7225 1.1875 2.3825 1.1875 3.0625 C0.5275 3.0625 -0.1325 3.0625 -0.8125 3.0625 C-0.4825 4.0525 -0.1525 5.0425 0.1875 6.0625 C-2.65800012 5.40239524 -5.33575999 4.54525034 -8.0625 3.5 C-8.76890625 3.23058594 -9.4753125 2.96117187 -10.203125 2.68359375 C-10.73421875 2.47863281 -11.2653125 2.27367187 -11.8125 2.0625 C-11.8125 1.7325 -11.8125 1.4025 -11.8125 1.0625 C-7.81454108 0.10630267 -4.10446078 -0.0414592 0 0 Z " fill="#63595A" transform="translate(115.8125,13.9375)"/>
<path d="M0 0 C0.66 0 1.32 0 2 0 C2 4.95 2 9.9 2 15 C1.01 15.33 0.02 15.66 -1 16 C-1.02685095 13.52076199 -1.04676547 11.0418116 -1.0625 8.5625 C-1.07506836 7.50192383 -1.07506836 7.50192383 -1.08789062 6.41992188 C-1.09653588 4.61306441 -1.05220011 2.80612397 -1 1 C-0.67 0.67 -0.34 0.34 0 0 Z " fill="#463A3B" transform="translate(235,43)"/>
<path d="M0 0 C0.103125 0.5775 0.20625 1.155 0.3125 1.75 C0.88923893 4.09987947 0.88923893 4.09987947 2.5625 6.0625 C4 8 4 8 4 11 C0.51460083 10.35455571 -2.02819057 8.89865603 -5 7 C-3.70700306 4.11562221 -2.34058637 2.12780579 0 0 Z " fill="#463F3E" transform="translate(121,146)"/>
<path d="M0 0 C2 3 2 3 2 5 C3.65 4.67 5.3 4.34 7 4 C7.28875 4.61875 7.5775 5.2375 7.875 5.875 C8.93720042 8.13325765 8.93720042 8.13325765 11 10 C8.8125 10.75 8.8125 10.75 6 11 C3.25 9.5 3.25 9.5 1 7 C0.1875 3.25 0.1875 3.25 0 0 Z " fill="#595050" transform="translate(152,87)"/>
<path d="M0 0 C0 0.99 0 1.98 0 3 C-0.66 3 -1.32 3 -2 3 C-2 5.64 -2 8.28 -2 11 C-2.33 10.34 -2.66 9.68 -3 9 C-3.66 9 -4.32 9 -5 9 C-5.33 9.99 -5.66 10.98 -6 12 C-6.33 10.02 -6.66 8.04 -7 6 C-6.34 6 -5.68 6 -5 6 C-5 6.66 -5 7.32 -5 8 C-4.34 8 -3.68 8 -3 8 C-3 6.68 -3 5.36 -3 4 C-4.98 4.33 -6.96 4.66 -9 5 C-9 4.34 -9 3.68 -9 3 C-5.63316085 0.56839395 -4.26649636 0 0 0 Z " fill="#4E5158" transform="translate(194,179)"/>
<path d="M0 0 C9.88344059 0.61243542 9.88344059 0.61243542 13 4 C13 4.66 13 5.32 13 6 C7.57689095 5.56615128 4.29855944 4.35497322 0 1 C0 0.67 0 0.34 0 0 Z " fill="#4C4442" transform="translate(179,17)"/>
<path d="M0 0 C0.66 0 1.32 0 2 0 C2.3690205 9.41002278 2.3690205 9.41002278 0 14 C-2 12 -2 12 -2.01171875 9.94140625 C-1.90472656 9.15636719 -1.79773438 8.37132812 -1.6875 7.5625 C-1.58824219 6.78003906 -1.48898438 5.99757812 -1.38671875 5.19140625 C-1 3 -1 3 0 0 Z " fill="#424144" transform="translate(189,188)"/>
<path d="M0 0 C0.66 0.33 1.32 0.66 2 1 C0.8553125 2.0828125 0.8553125 2.0828125 -0.3125 3.1875 C-3.67856219 6.71012323 -5.84660562 9.12091882 -6.25 14.0625 C-6.04164301 16.51069462 -5.72026854 18.65912726 -5 21 C-7.10633718 19.29171079 -7.93801608 18.47851584 -8.29296875 15.73828125 C-8.25816406 14.93777344 -8.22335938 14.13726562 -8.1875 13.3125 C-8.16042969 12.50425781 -8.13335937 11.69601563 -8.10546875 10.86328125 C-8.07066406 10.24839844 -8.03585938 9.63351563 -8 9 C-7.34 9 -6.68 9 -6 9 C-5.896875 8.236875 -5.79375 7.47375 -5.6875 6.6875 C-4.9472899 3.79395144 -4.29010706 2.83208565 -2 1 C-1.34 0.67 -0.68 0.34 0 0 Z " fill="#FAE4E2" transform="translate(181,103)"/>
<path d="M0 0 C3.96 1.32 7.92 2.64 12 4 C11.67 4.66 11.34 5.32 11 6 C9.63875 5.938125 9.63875 5.938125 8.25 5.875 C5.1217954 5.99531556 3.61385994 6.3914708 1 8 C1 6.33333333 1 4.66666667 1 3 C0.34 3 -0.32 3 -1 3 C-0.67 2.01 -0.34 1.02 0 0 Z " fill="#B7D5EA" transform="translate(140,167)"/>
<path d="M0 0 C2.475 0.99 2.475 0.99 5 2 C3.55746343 5.36591866 1.66735273 7.51047079 -1 10 C-2.25556424 6.09380015 -1.81588958 3.63177916 0 0 Z " fill="#D2C5C4" transform="translate(225,127)"/>
<path d="M0 0 C0.66 0.66 1.32 1.32 2 2 C1.65922921 9.15618661 1.65922921 9.15618661 -0.5625 12 C-1.036875 12.33 -1.51125 12.66 -2 13 C-3.4500578 8.45580479 -2.32826388 5.50133869 -1 1 C-0.67 0.67 -0.34 0.34 0 0 Z " fill="#4A4241" transform="translate(70,71)"/>
<path d="M0 0 C4.29 0.66 8.58 1.32 13 2 C8.64467851 4.17766075 7.53374042 4.03039555 3 3 C3.33 3.99 3.66 4.98 4 6 C3.01 5.67 2.02 5.34 1 5 C0.01 5.99 -0.98 6.98 -2 8 C-1.34 5.36 -0.68 2.72 0 0 Z " fill="#C5BBBB" transform="translate(163,16)"/>
<path d="M0 0 C0 2.64 0 5.28 0 8 C-1.66666667 8 -3.33333333 8 -5 8 C-5.33 8.99 -5.66 9.98 -6 11 C-6.3125 8.3125 -6.3125 8.3125 -6 5 C-1.76086957 0 -1.76086957 0 0 0 Z " fill="#443735" transform="translate(42,32)"/>
<path d="M0 0 C2.4375 1.5625 2.4375 1.5625 4 3 C3.67 3.66 3.34 4.32 3 5 C2.34 5 1.68 5 1 5 C1 4.34 1 3.68 1 3 C0.34 3 -0.32 3 -1 3 C-1 2.34 -1 1.68 -1 1 C-3.97 1.66 -6.94 2.32 -10 3 C-10.33 2.34 -10.66 1.68 -11 1 C-7.21813195 -1.57167028 -4.32990915 -1.00515748 0 0 Z " fill="#544B49" transform="translate(37,25)"/>
<path d="M0 0 C2.64 0 5.28 0 8 0 C7.67 1.32 7.34 2.64 7 4 C5.35 3.67 3.7 3.34 2 3 C2 3.66 2 4.32 2 5 C1.01 4.67 0.02 4.34 -1 4 C-0.67 2.68 -0.34 1.36 0 0 Z " fill="#BED9EA" transform="translate(93,178)"/>
<path d="M0 0 C2.65269897 2.47585238 4.68010103 4.59026101 6 8 C6 8.99 6 9.98 6 11 C5.01 11.33 4.02 11.66 3 12 C2.49440092 10.56445975 1.9957251 9.1264798 1.5 7.6875 C1.2215625 6.88699219 0.943125 6.08648437 0.65625 5.26171875 C0 3 0 3 0 0 Z " fill="#CBC1BF" transform="translate(185,156)"/>
<path d="M0 0 C-0.33 0.33 -0.66 0.66 -1 1 C-0.01 1.66 0.98 2.32 2 3 C-1.3 3.66 -4.6 4.32 -8 5 C-8 4.34 -8 3.68 -8 3 C-7.01 3 -6.02 3 -5 3 C-5 2.34 -5 1.68 -5 1 C-8.63 1 -12.26 1 -16 1 C-16 0.67 -16 0.34 -16 0 C-13.7089095 -0.19441368 -11.41709663 -0.38033135 -9.125 -0.5625 C-7.21074219 -0.71912109 -7.21074219 -0.71912109 -5.2578125 -0.87890625 C-2 -1 -2 -1 0 0 Z " fill="#665B5A" transform="translate(198,152)"/>
<path d="M0 0 C0.33 0 0.66 0 1 0 C1.3690205 11.52164009 1.3690205 11.52164009 -1 17 C-1.33 17 -1.66 17 -2 17 C-2.2226746 15.56465159 -2.42761906 14.12654475 -2.625 12.6875 C-2.74101563 11.88699219 -2.85703125 11.08648437 -2.9765625 10.26171875 C-3 8 -3 8 -1 5 C-0.61500109 3.34450469 -0.27206865 1.6777567 0 0 Z " fill="#615151" transform="translate(64,101)"/>
<path d="M0 0 C2.9375 0.375 2.9375 0.375 6 1 C6.33 1.66 6.66 2.32 7 3 C5.68 4.32 4.36 5.64 3 7 C2.67 5.68 2.34 4.36 2 3 C1.34 3 0.68 3 0 3 C-0.33 3.66 -0.66 4.32 -1 5 C-1 2 -1 2 0 0 Z " fill="#453A39" transform="translate(159,82)"/>
<path d="M0 0 C0 3.3 0 6.6 0 10 C-0.99 9.67 -1.98 9.34 -3 9 C-3.33 6.69 -3.66 4.38 -4 2 C-1 0 -1 0 0 0 Z " fill="#473F3D" transform="translate(85,158)"/>
<path d="M0 0 C3.63 0 7.26 0 11 0 C11 0.66 11 1.32 11 2 C10.01 2 9.02 2 8 2 C7.67 2.66 7.34 3.32 7 4 C6.67 3.67 6.34 3.34 6 3 C4.00041636 2.95919217 1.99954746 2.95745644 0 3 C0 2.01 0 1.02 0 0 Z " fill="#433A38" transform="translate(182,153)"/>
<path d="M0 0 C1.02196992 0.97753644 2.02509299 1.97552144 3 3 C-0.00988272 3.58052245 -2.92889402 4.05989746 -6 4 C-8.0625 2.0625 -8.0625 2.0625 -9 0 C-5.65474779 -0.83631305 -3.24869444 -1.29947778 0 0 Z " fill="#5D5050" transform="translate(135,13)"/>
<path d="M0 0 C0.33 0 0.66 0 1 0 C1 2.97 1 5.94 1 9 C0.01 9.33 -0.98 9.66 -2 10 C-2.33 10.66 -2.66 11.32 -3 12 C-2.14285714 3.42857143 -2.14285714 3.42857143 0 0 Z " fill="#463F3F" transform="translate(87,185)"/>
<path d="M0 0 C2.475 0.99 2.475 0.99 5 2 C4.42655063 4.86724686 4.1385485 5.8614515 2 8 C0.4375 6.8125 0.4375 6.8125 -1 5 C-0.6875 2.3125 -0.6875 2.3125 0 0 Z " fill="#EDECE8" transform="translate(81,140)"/>
<path d="M0 0 C0.33 0 0.66 0 1 0 C1 3.63 1 7.26 1 11 C0.34 11 -0.32 11 -1 11 C-1.33 11.66 -1.66 12.32 -2 13 C-2.16682272 8.07872966 -2.24828052 4.49656104 0 0 Z " fill="#4B3A3A" transform="translate(238,103)"/>
<path d="M0 0 C2.32590854 3.63423209 2.16265833 6.77088331 2 11 C0.35 9.35 -1.3 7.7 -3 6 C-2 4 -1 2 0 0 Z " fill="#C0B3B3" transform="translate(221,39)"/>
<path d="M0 0 C0.66 0 1.32 0 2 0 C2.33 2.64 2.66 5.28 3 8 C1.02 8.99 1.02 8.99 -1 10 C-1.125 2.25 -1.125 2.25 0 0 Z " fill="#5A4F51" transform="translate(234,35)"/>
<path d="M0 0 C2.31 0.33 4.62 0.66 7 1 C7 1.99 7 2.98 7 4 C4.36 4 1.72 4 -1 4 C-0.67 2.68 -0.34 1.36 0 0 Z " fill="#4E4443" transform="translate(159,12)"/>
<path d="M0 0 C-1.41328129 0.81837442 -2.83078346 1.62946219 -4.25 2.4375 C-5.43335938 3.11619141 -5.43335938 3.11619141 -6.640625 3.80859375 C-8.78833468 4.89311602 -10.65205061 5.53148716 -13 6 C-13.33 5.34 -13.66 4.68 -14 4 C-13.29875 3.731875 -12.5975 3.46375 -11.875 3.1875 C-8.90908254 2.02036103 -8.90908254 2.02036103 -5.875 0.3125 C-3 -1 -3 -1 0 0 Z " fill="#BBD3E0" transform="translate(190,180)"/>
<path d="M0 0 C0.99 0.33 1.98 0.66 3 1 C3.33 2.98 3.66 4.96 4 7 C3.01 7 2.02 7 1 7 C0.67 6.34 0.34 5.68 0 5 C-2.01669827 3.86649466 -2.01669827 3.86649466 -4 3 C-2.1875 1.4375 -2.1875 1.4375 0 0 Z " fill="#A4BBC5" transform="translate(194,168)"/>
<path d="M0 0 C0.7425 0.0825 1.485 0.165 2.25 0.25 C2.25 1.24 2.25 2.23 2.25 3.25 C-0.70664519 4.7283226 -3.49229737 4.31032783 -6.75 4.25 C-3.42692308 0.31153846 -3.42692308 0.31153846 0 0 Z " fill="#4A3D3D" transform="translate(202.75,149.75)"/>
<path d="M0 0 C0.33 0 0.66 0 1 0 C1.25 6.625 1.25 6.625 -1 10 C-2.32 9.67 -3.64 9.34 -5 9 C-5.33 7.35 -5.66 5.7 -6 4 C-5.67 4.99 -5.34 5.98 -5 7 C-3.35 6.67 -1.7 6.34 0 6 C0 4.02 0 2.04 0 0 Z " fill="#5A5352" transform="translate(41,42)"/>
<path d="M0 0 C2.66666667 1.33333333 5.33333333 2.66666667 8 4 C8 4.66 8 5.32 8 6 C5.69 6 3.38 6 1 6 C1.33 5.01 1.66 4.02 2 3 C1.34 3 0.68 3 0 3 C0 2.01 0 1.02 0 0 Z " fill="#B7D2E1" transform="translate(165,208)"/>
<path d="M0 0 C2.4164124 0.48328248 4.65832183 1.21944061 7 2 C7 2.66 7 3.32 7 4 C6.21625 4.12375 5.4325 4.2475 4.625 4.375 C1.85942178 4.79117993 1.85942178 4.79117993 0 7 C-0.38133299 5.0085944 -0.71325582 3.00720923 -1 1 C-0.67 0.67 -0.34 0.34 0 0 Z " fill="#B3D9EB" transform="translate(156,187)"/>
<path d="M0 0 C1.32 1.65 2.64 3.3 4 5 C3.01 5.99 2.02 6.98 1 8 C-1.50037734 5.82575883 -2.43628586 4.26954202 -3 1 C-2.01 0.67 -1.02 0.34 0 0 Z " fill="#574D4F" transform="translate(85,166)"/>
<path d="M0 0 C0.66 0 1.32 0 2 0 C1.25 4.75 1.25 4.75 -1 7 C-1.99 6.67 -2.98 6.34 -4 6 C-2.84826645 3.53199953 -1.95216435 1.95216435 0 0 Z " fill="#473B3B" transform="translate(226,135)"/>
<path d="M0 0 C0.66 0 1.32 0 2 0 C1.25 4.75 1.25 4.75 -1 7 C-1.99 7 -2.98 7 -4 7 C-4 5.68 -4 4.36 -4 3 C-3.34 3 -2.68 3 -2 3 C-1.34 2.01 -0.68 1.02 0 0 Z " fill="#47393A" transform="translate(91,137)"/>
<path d="M0 0 C0.66 0.33 1.32 0.66 2 1 C1.38461538 7.52307692 1.38461538 7.52307692 -0.5625 9.9375 C-1.036875 10.288125 -1.51125 10.63875 -2 11 C-2.28571429 3.57142857 -2.28571429 3.57142857 0 0 Z " fill="#473B3B" transform="translate(63,98)"/>
<path d="M0 0 C0.66 0 1.32 0 2 0 C2 1.98 2 3.96 2 6 C0.35 6.33 -1.3 6.66 -3 7 C-2.25 2.25 -2.25 2.25 0 0 Z " fill="#554C4D" transform="translate(42,54)"/>
<path d="M0 0 C3.875 0.875 3.875 0.875 5 2 C5.04080783 3.99958364 5.04254356 6.00045254 5 8 C4.01 7.67 3.02 7.34 2 7 C0.8125 3.4375 0.8125 3.4375 0 0 Z " fill="#463E3F" transform="translate(121,135)"/>
<path d="M0 0 C1 2 1 2 0.0625 5.125 C-0.288125 6.07375 -0.63875 7.0225 -1 8 C-2.32 7.34 -3.64 6.68 -5 6 C-4.67 4.35 -4.34 2.7 -4 1 C-2.68 0.67 -1.36 0.34 0 0 Z " fill="#5D5452" transform="translate(74,66)"/>
<path d="M0 0 C0.66 0.66 1.32 1.32 2 2 C1.34 2 0.68 2 0 2 C-0.33 3.65 -0.66 5.3 -1 7 C-2.32 7.33 -3.64 7.66 -5 8 C-3.8141763 4.62496331 -2.72426311 2.35277269 0 0 Z " fill="#453A38" transform="translate(92,30)"/>
<path d="M0 0 C2.97 0.33 5.94 0.66 9 1 C6 4 6 4 2.9375 4.0625 C1.4834375 4.0315625 1.4834375 4.0315625 0 4 C0 2.68 0 1.36 0 0 Z " fill="#5A4F4F" transform="translate(216,25)"/>
<path d="M0 0 C6.625 0.75 6.625 0.75 10 3 C10 3.66 10 4.32 10 5 C7.83125748 4.49396008 6.00032373 4.00016187 4 3 C2.67139075 2.64830932 1.33841672 2.31229724 0 2 C0 1.34 0 0.68 0 0 Z " fill="#463939" transform="translate(103,16)"/>
<path d="M0 0 C3.3 0.33 6.6 0.66 10 1 C8.02 1.99 8.02 1.99 6 3 C5.67 3.33 5.34 3.66 5 4 C2.66702567 4.04092937 0.33294775 4.04241723 -2 4 C-1.34 2.68 -0.68 1.36 0 0 Z " fill="#5C5151" transform="translate(166,13)"/>
<path d="M0 0 C0.33 0.66 0.66 1.32 1 2 C2.32 2.33 3.64 2.66 5 3 C2.03 3.66 -0.94 4.32 -4 5 C-4 4.34 -4 3.68 -4 3 C-4.66 2.67 -5.32 2.34 -6 2 C-4.02 1.34 -2.04 0.68 0 0 Z " fill="#AED0DF" transform="translate(105,175)"/>
<path d="M0 0 C-2 2 -2 2 -3.9453125 2.1953125 C-5.96354167 2.13020833 -7.98177083 2.06510417 -10 2 C-10 1.34 -10 0.68 -10 0 C-6.30581799 -1.231394 -3.7943739 -0.64432764 0 0 Z " fill="#3C3D45" transform="translate(186,172)"/>
<path d="M0 0 C1.5625 1.1875 1.5625 1.1875 3 3 C2.6875 5.6875 2.6875 5.6875 2 8 C0.68 7.34 -0.64 6.68 -2 6 C-1.34 4.02 -0.68 2.04 0 0 Z " fill="#DBD0CE" transform="translate(228,121)"/>
<path d="M0 0 C2.51083114 1.25541557 2.87125446 2.50063488 4 5 C2.02 5.99 2.02 5.99 0 7 C-0.38133299 5.0085944 -0.71325582 3.00720923 -1 1 C-0.67 0.67 -0.34 0.34 0 0 Z " fill="#453737" transform="translate(154,85)"/>
<path d="M0 0 C2.31 0.33 4.62 0.66 7 1 C7.33 2.65 7.66 4.3 8 6 C4.08597051 4.73058503 2.20927127 3.48832306 0 0 Z " fill="#BCB5B6" transform="translate(210,36)"/>
<path d="M0 0 C0.33 0.99 0.66 1.98 1 3 C-1.25 3.6875 -1.25 3.6875 -4 4 C-6.3125 2.5625 -6.3125 2.5625 -8 1 C-5.07175348 0.02391783 -3.04386724 -0.08226668 0 0 Z " fill="#4C4142" transform="translate(216,24)"/>
<path d="M0 0 C0.33 0 0.66 0 1 0 C1.6875 2.75 1.6875 2.75 2 6 C0.5625 8.375 0.5625 8.375 -1 10 C-2.1875 8.375 -2.1875 8.375 -3 6 C-1.625 2.75 -1.625 2.75 0 0 Z " fill="#E9E4E1" transform="translate(125,144)"/>
<path d="M0 0 C1.875 0.1875 1.875 0.1875 4 1 C5.25 3.5625 5.25 3.5625 6 6 C4.02 5.34 2.04 4.68 0 4 C0 2.68 0 1.36 0 0 Z " fill="#534A4A" transform="translate(119,130)"/>
<path d="M0 0 C1.6875 1.5625 1.6875 1.5625 3 3 C-0.3125 3.6875 -0.3125 3.6875 -4 4 C-5.9375 2.5625 -5.9375 2.5625 -7 1 C-3.375 -1.125 -3.375 -1.125 0 0 Z " fill="#685E5E" transform="translate(105,125)"/>
<path d="M0 0 C0.66 0.66 1.32 1.32 2 2 C-2.32734391 4.22923777 -5.28400182 3.92470553 -10 3 C-10 2.67 -10 2.34 -10 2 C-8.37828761 1.61102839 -6.75245075 1.23921702 -5.125 0.875 C-4.22007812 0.66617188 -3.31515625 0.45734375 -2.3828125 0.2421875 C-1.20332031 0.12230469 -1.20332031 0.12230469 0 0 Z " fill="#9CB8C9" transform="translate(188,172)"/>
<path d="M0 0 C6.625 0.75 6.625 0.75 10 3 C7.03 3 4.06 3 1 3 C0.67 2.01 0.34 1.02 0 0 Z " fill="#3C4145" transform="translate(99,211)"/>
<path d="M0 0 C2.97 0 5.94 0 9 0 C9.33 0.99 9.66 1.98 10 3 C8.72125 3.061875 7.4425 3.12375 6.125 3.1875 C5.40570313 3.22230469 4.68640625 3.25710937 3.9453125 3.29296875 C3.30335937 3.19628906 2.66140625 3.09960938 2 3 C1.34 2.01 0.68 1.02 0 0 Z " fill="#3F3A3B" transform="translate(92,174)"/>
<path d="M0 0 C0.77772405 2.33317216 1.42415568 4.61435923 2 7 C-0.64 6.67 -3.28 6.34 -6 6 C-6 5.67 -6 5.34 -6 5 C-4.35 5 -2.7 5 -1 5 C-1 4.34 -1 3.68 -1 3 C-1.66 2.67 -2.32 2.34 -3 2 C-2.01 1.34 -1.02 0.68 0 0 Z " fill="#585457" transform="translate(160,167)"/>
<path d="M0 0 C0.33 0.66 0.66 1.32 1 2 C1.66 2.33 2.32 2.66 3 3 C2.67 3.99 2.34 4.98 2 6 C1.01 5.67 0.02 5.34 -1 5 C-1.66 5.66 -2.32 6.32 -3 7 C-2.25 2.25 -2.25 2.25 0 0 Z " fill="#DED2D3" transform="translate(222,131)"/>
<path d="M0 0 C2.125 0.375 2.125 0.375 4 1 C2.25 4.875 2.25 4.875 0 6 C0 5.01 0 4.02 0 3 C-0.66 2.67 -1.32 2.34 -2 2 C-1.34 1.34 -0.68 0.68 0 0 Z " fill="#5A5053" transform="translate(97,127)"/>
<path d="M0 0 C0.33 0 0.66 0 1 0 C1.06058594 0.62648437 1.12117188 1.25296875 1.18359375 1.8984375 C1.26738281 2.71570312 1.35117187 3.53296875 1.4375 4.375 C1.51871094 5.18710937 1.59992187 5.99921875 1.68359375 6.8359375 C1.89090114 9.04272805 1.89090114 9.04272805 3 11 C2.67 11.66 2.34 12.32 2 13 C1.34 13 0.68 13 0 13 C0 12.01 0 11.02 0 10 C-0.66 9.67 -1.32 9.34 -2 9 C-1.34 9 -0.68 9 0 9 C0 6.03 0 3.06 0 0 Z " fill="#EBE6E5" transform="translate(34,41)"/>
<path d="M0 0 C0.99 0.66 1.98 1.32 3 2 C2.01 2.33 1.02 2.66 0 3 C-0.6837045 4.32467746 -1.34964186 5.65863633 -2 7 C-2.99 7.66 -3.98 8.32 -5 9 C-3.7508258 5.54074837 -2.32472205 2.85306797 0 0 Z " fill="#DBD2D0" transform="translate(92,26)"/>
<path d="M0 0 C0.33 0.99 0.66 1.98 1 3 C0.67 3.66 0.34 4.32 0 5 C0.66 5.33 1.32 5.66 2 6 C1.01 7.485 1.01 7.485 0 9 C-0.99 8.67 -1.98 8.34 -3 8 C-2.37240135 5.07120629 -1.41377341 2.63904371 0 0 Z " fill="#B4D4E1" transform="translate(113,166)"/>
<path d="M0 0 C0.99 0.33 1.98 0.66 3 1 C2.67 2.32 2.34 3.64 2 5 C0.68 4.67 -0.64 4.34 -2 4 C-1.34 2.68 -0.68 1.36 0 0 Z " fill="#5F5B5C" transform="translate(124,98)"/>
<path d="M0 0 C2.475 0.99 2.475 0.99 5 2 C4.67 3.32 4.34 4.64 4 6 C3.67 5.34 3.34 4.68 3 4 C2.01 4 1.02 4 0 4 C0 2.68 0 1.36 0 0 Z " fill="#493D3D" transform="translate(44,54)"/>
<path d="M0 0 C1.98 0.66 3.96 1.32 6 2 C5.01 2.495 5.01 2.495 4 3 C4.33 3.99 4.66 4.98 5 6 C3.68 5.67 2.36 5.34 1 5 C0.67 3.35 0.34 1.7 0 0 Z " fill="#4E4D53" transform="translate(95,208)"/>
<path d="M0 0 C2.3431213 0.25561323 4.67843403 0.59270772 7 1 C7.33 1.66 7.66 2.32 8 3 C5.69 3 3.38 3 1 3 C0.67 2.01 0.34 1.02 0 0 Z " fill="#3D3C3D" transform="translate(143,166)"/>
<path d="M0 0 C2 2 2 2 2.125 4.625 C2.08375 5.40875 2.0425 6.1925 2 7 C1.01 7.33 0.02 7.66 -1 8 C-2.2077558 4.37673261 -1.54311128 3.35853631 0 0 Z " fill="#B7D1E2" transform="translate(117,158)"/>
<path d="M0 0 C1.32 0.99 2.64 1.98 4 3 C3.34 3.66 2.68 4.32 2 5 C-0.125 4.625 -0.125 4.625 -2 4 C-2 3.01 -2 2.02 -2 1 C-1.34 0.67 -0.68 0.34 0 0 Z " fill="#D0C2C2" transform="translate(220,135)"/>
<path d="M0 0 C0.99 0.33 1.98 0.66 3 1 C3 2.65 3 4.3 3 6 C2.34 6 1.68 6 1 6 C0.34 6.99 -0.32 7.98 -1 9 C-0.67 6.03 -0.34 3.06 0 0 Z " fill="#615B5A" transform="translate(62,93)"/>
<path d="M0 0 C0.66 0.66 1.32 1.32 2 2 C1.75 4.5625 1.75 4.5625 1 7 C0.01 7.495 0.01 7.495 -1 8 C-1.625 5.125 -1.625 5.125 -2 2 C-1.34 1.34 -0.68 0.68 0 0 Z " fill="#493E40" transform="translate(65,89)"/>
<path d="M0 0 C0.66 0 1.32 0 2 0 C2.33 0.99 2.66 1.98 3 3 C1.68 3.99 0.36 4.98 -1 6 C-1.625 4.125 -1.625 4.125 -2 2 C-1.34 1.34 -0.68 0.68 0 0 Z " fill="#4C4041" transform="translate(95,18)"/>
<path d="M0 0 C0.99 1.32 1.98 2.64 3 4 C2.34 5.32 1.68 6.64 1 8 C-1.125 3.375 -1.125 3.375 0 0 Z " fill="#4E5153" transform="translate(186,198)"/>
<path d="M0 0 C2 3.75 2 3.75 2 6 C0.68 6.33 -0.64 6.66 -2 7 C-2.33 5.35 -2.66 3.7 -3 2 C-2.01 2 -1.02 2 0 2 C0 1.34 0 0.68 0 0 Z " fill="#534D51" transform="translate(163,194)"/>
<path d="M0 0 C2.31 0 4.62 0 7 0 C7 1.32 7 2.64 7 4 C6.34 4 5.68 4 5 4 C5 3.34 5 2.68 5 2 C3.02 2 1.04 2 -1 2 C-0.67 1.34 -0.34 0.68 0 0 Z " fill="#41383A" transform="translate(184,183)"/>
<path d="M0 0 C1.125 3.75 1.125 3.75 0 6 C-0.99 6 -1.98 6 -3 6 C-3 5.34 -3 4.68 -3 4 C-3.66 3.67 -4.32 3.34 -5 3 C-3.35 2.01 -1.7 1.02 0 0 Z " fill="#5A4F4E" transform="translate(216,143)"/>
<path d="M0 0 C1.98 0 3.96 0 6 0 C4.25 2 4.25 2 2 4 C0.68 4 -0.64 4 -2 4 C-1.34 2.68 -0.68 1.36 0 0 Z " fill="#D4C5C6" transform="translate(213,141)"/>
<path d="M0 0 C0.66 0.33 1.32 0.66 2 1 C0.02 3.31 -1.96 5.62 -4 8 C-4.66 7.67 -5.32 7.34 -6 7 C-4.02 4.69 -2.04 2.38 0 0 Z " fill="#F4EEF0" transform="translate(102,128)"/>
<path d="M0 0 C0.66 0.33 1.32 0.66 2 1 C1.67 1.66 1.34 2.32 1 3 C1.66 3 2.32 3 3 3 C2.34 4.32 1.68 5.64 1 7 C-1 4 -1 4 -2 1 C-1.34 0.67 -0.68 0.34 0 0 Z " fill="#574D4B" transform="translate(86,35)"/>
</svg>
